<?xml version="1.0" standalone="no"?>
<!DOCTYPE svg PUBLIC "-//W3C//DTD SVG 20010904//EN"
 "http://www.w3.org/TR/2001/REC-SVG-20010904/DTD/svg10.dtd">
<svg version="1.0" xmlns="http://www.w3.org/2000/svg"
 width="560.000000pt" height="560.000000pt" viewBox="0 0 560.000000 560.000000"
 preserveAspectRatio="xMidYMid meet">
<metadata>
Created by potrace 1.14, written by Peter Selinger 2001-2017
</metadata>
<g transform="translate(0.000000,560.000000) scale(0.100000,-0.100000)"
fill="#000000" stroke="none">
<path d="M3175 5465 c-111 -49 -159 -180 -104 -286 20 -41 74 -98 92 -99 4 0
7 -195 7 -434 l0 -434 48 -29 c26 -16 54 -32 62 -36 8 -4 29 -15 45 -25 30
-19 398 -231 486 -281 25 -14 151 -87 279 -161 128 -74 240 -134 248 -132 13
3 57 27 150 83 15 9 47 27 72 41 25 14 110 63 190 110 80 47 164 95 188 107
23 12 42 25 42 29 0 5 -19 19 -42 32 -24 13 -150 86 -281 162 -131 76 -243
138 -248 138 -5 0 -9 5 -9 10 0 6 -5 10 -11 10 -6 0 -56 27 -111 60 -56 33
-105 60 -109 60 -5 0 -9 5 -9 11 0 5 -4 8 -9 4 -5 -3 -12 -1 -15 4 -4 5 -45
31 -93 58 -47 26 -107 60 -132 75 -25 16 -55 33 -66 38 -11 6 -29 16 -40 23
-11 7 -58 34 -105 61 -47 27 -128 74 -180 105 -52 30 -97 56 -100 56 -3 0 -19
10 -36 22 l-32 23 1 105 c1 58 4 105 8 105 20 0 82 74 98 116 66 179 -110 347
-284 269z m369 -922 c49 -29 90 -53 92 -53 1 0 49 -28 106 -61 57 -34 121 -72
143 -84 22 -12 58 -32 80 -45 22 -13 49 -28 60 -34 11 -6 68 -40 127 -74 59
-35 110 -63 114 -62 4 1 10 -2 13 -7 3 -5 84 -54 179 -108 171 -99 172 -100
150 -117 -22 -16 -182 -108 -203 -117 -5 -2 -12 -7 -15 -12 -3 -4 -16 -10 -30
-14 -18 -4 -41 4 -83 29 -32 19 -61 36 -65 37 -4 1 -23 12 -42 24 -42 26 -108
64 -170 98 -25 14 -67 38 -95 55 -27 17 -78 46 -112 64 -35 18 -63 36 -63 40
0 5 -4 8 -9 8 -5 0 -65 32 -133 71 -67 39 -143 83 -168 96 -25 14 -49 30 -55
35 -10 9 -17 315 -8 331 4 7 32 -7 187 -100z"/>
<path d="M2966 4962 c-3 -6 -23 -19 -43 -30 -86 -45 -108 -57 -113 -63 -3 -3
-25 -15 -50 -28 -25 -13 -64 -36 -88 -52 -24 -16 -45 -29 -47 -29 -3 0 -165
-93 -362 -206 -197 -114 -383 -220 -413 -237 -30 -17 -95 -55 -144 -84 -49
-29 -90 -53 -91 -53 -2 0 -36 -19 -77 -43 -40 -24 -81 -46 -91 -50 -11 -4 -44
11 -99 48 -45 30 -85 55 -88 55 -3 0 -6 23 -8 51 -5 90 -49 151 -134 188 -107
45 -228 -5 -274 -114 -45 -106 9 -238 114 -278 52 -21 112 -22 157 -3 31 13
36 13 57 -3 13 -10 97 -65 188 -122 91 -57 167 -107 168 -111 2 -4 8 -8 13 -8
5 0 70 -40 144 -90 74 -49 139 -90 144 -90 4 0 14 -7 21 -15 7 -8 18 -15 24
-15 12 0 351 190 373 210 7 5 15 10 18 10 3 0 76 41 161 90 85 50 159 90 165
90 5 0 9 5 9 10 0 6 4 10 9 10 4 0 80 41 167 92 88 50 169 96 181 102 13 6 23
20 24 31 4 95 1 736 -3 741 -3 3 -9 1 -12 -4z m-168 -477 l-1 -166 -27 -19
c-16 -11 -30 -20 -33 -20 -3 0 -66 -36 -140 -80 -75 -44 -140 -80 -146 -80 -6
0 -11 -4 -11 -10 0 -5 -6 -10 -14 -10 -7 0 -19 -7 -26 -15 -7 -8 -16 -12 -21
-9 -5 3 -9 0 -9 -5 0 -6 -7 -11 -15 -11 -8 0 -15 -4 -15 -10 0 -5 -5 -10 -10
-10 -6 0 -81 -41 -168 -91 -86 -50 -177 -103 -202 -117 -25 -13 -51 -29 -58
-35 -9 -7 -36 5 -95 43 -45 30 -108 69 -140 88 -51 31 -55 36 -40 47 10 7 124
73 253 148 129 74 251 144 270 156 19 11 56 32 82 46 26 13 88 49 139 80 50
30 93 55 94 55 1 0 76 43 166 95 90 52 165 95 166 95 1 0 1 -74 1 -165z"/>
<path d="M1162 2938 c0 -480 -1 -882 -1 -894 -1 -11 -11 -26 -23 -32 -13 -7
-45 -25 -73 -42 -95 -56 -91 -55 -135 -35 -108 49 -232 7 -285 -95 -25 -47
-25 -143 -1 -190 83 -158 301 -158 381 0 14 27 25 60 25 73 0 17 12 32 38 49
31 21 330 195 645 376 42 24 79 48 82 52 4 6 7 807 5 1153 0 36 -3 40 -82 90
-46 29 -87 56 -93 59 -7 4 -10 -195 -9 -590 1 -518 -1 -599 -14 -614 -8 -10
-21 -18 -28 -18 -7 0 -14 -4 -16 -8 -1 -4 -30 -23 -63 -41 -115 -65 -126 -71
-148 -86 l-22 -14 0 780 0 781 -35 24 c-72 50 -140 94 -143 94 -2 0 -4 -393
-5 -872z"/>
<path d="M2920 3252 c-78 -39 -122 -104 -121 -176 1 -72 18 -113 63 -156 l33
-32 1 -231 c1 -128 2 -240 3 -250 0 -10 14 -32 30 -48 33 -33 75 -38 120 -14
48 24 53 53 53 307 l0 232 39 44 c21 25 43 60 48 79 11 40 7 119 -7 136 -6 7
-10 15 -9 19 4 14 -75 88 -93 88 -10 0 -22 5 -25 10 -10 16 -97 11 -135 -8z"/>
<path d="M1878 2018 c-7 -7 -34 -24 -59 -37 -53 -28 -84 -49 -78 -54 4 -4 235
-138 304 -177 22 -13 54 -31 70 -41 17 -11 37 -22 45 -26 8 -3 39 -21 68 -40
29 -18 55 -33 57 -33 3 0 35 -18 71 -40 36 -22 67 -40 69 -40 2 0 49 -27 104
-60 56 -33 104 -60 108 -60 3 0 14 -6 22 -14 9 -8 39 -26 68 -41 28 -14 56
-32 61 -38 8 -10 15 -337 7 -337 -4 0 -438 251 -450 260 -5 4 -35 21 -65 37
-30 17 -138 79 -240 138 -102 59 -201 116 -220 127 -19 10 -42 23 -50 28 -57
36 -247 145 -302 173 -37 18 -38 18 -65 -1 -15 -10 -52 -32 -80 -47 -29 -16
-53 -33 -53 -39 1 -6 69 -49 152 -96 149 -84 170 -96 304 -175 38 -22 81 -47
96 -55 15 -8 71 -40 125 -71 162 -93 675 -390 713 -412 19 -11 55 -32 80 -46
25 -13 48 -29 52 -35 3 -5 6 -65 5 -133 l0 -123 -32 -21 c-124 -85 -113 -277
21 -355 160 -94 362 57 309 231 -7 24 -10 46 -7 49 3 4 0 6 -6 6 -7 0 -12 5
-12 11 0 12 -29 41 -66 65 -21 14 -21 17 -21 465 0 263 -3 453 -9 459 -9 9
-235 141 -409 238 -55 31 -102 58 -105 61 -3 4 -21 14 -40 25 -68 37 -405 230
-410 236 -11 12 -90 50 -104 50 -8 0 -21 -6 -28 -12z"/>
<path d="M4157 1990 c-38 -22 -72 -40 -77 -40 -5 0 -10 -4 -12 -8 -1 -5 -28
-22 -58 -39 -30 -17 -143 -81 -250 -143 -107 -62 -208 -121 -225 -130 -16 -9
-105 -61 -197 -115 l-168 -97 0 -374 c0 -206 3 -374 7 -374 11 0 207 112 214
123 3 5 8 8 10 7 8 -4 59 24 59 32 0 4 4 8 10 8 9 0 53 25 370 208 91 53 180
104 198 113 18 10 38 22 45 27 7 5 37 22 67 38 30 16 57 32 60 35 3 3 30 19
60 36 30 17 100 56 155 88 55 32 110 63 122 69 13 6 23 14 23 19 0 4 9 7 20 7
11 0 20 4 20 9 0 5 23 20 50 32 28 12 50 26 50 31 0 4 5 8 10 8 6 0 47 21 91
47 l81 47 -24 18 c-13 9 -29 18 -35 18 -7 0 -13 3 -13 8 0 4 -10 12 -23 18
-39 19 -141 76 -167 94 -14 9 -40 23 -57 31 -18 8 -33 17 -33 21 0 5 -4 8 -10
8 -5 0 -38 17 -72 38 -35 21 -70 41 -78 45 -8 4 -28 16 -45 27 -46 29 -87 50
-99 50 -6 0 -42 -18 -79 -40z m137 -182 c22 -13 43 -26 44 -30 2 -5 7 -8 12
-8 5 0 43 -20 84 -45 42 -25 81 -45 86 -45 18 0 6 -33 -15 -41 -9 -4 -100 -55
-195 -111 -19 -11 -53 -30 -75 -41 -22 -12 -42 -24 -45 -27 -9 -9 -397 -230
-404 -230 -4 0 -16 -9 -28 -20 -12 -10 -25 -17 -30 -14 -4 3 -8 1 -8 -3 0 -5
-22 -20 -50 -34 -27 -13 -50 -27 -50 -31 0 -5 -4 -8 -9 -8 -12 0 -169 -88
-200 -112 -13 -10 -27 -15 -32 -12 -5 3 -9 0 -9 -5 0 -6 -4 -11 -8 -11 -7 0
-10 304 -4 332 1 3 44 30 95 60 50 29 110 63 132 76 22 12 48 25 58 29 9 3 17
9 17 14 0 5 7 9 15 9 8 0 15 5 15 11 0 5 5 7 10 4 6 -3 13 1 16 9 3 9 10 14
14 11 5 -3 15 2 23 10 9 8 18 15 21 15 4 0 61 32 127 70 66 39 124 70 129 70
6 0 10 5 10 10 0 6 4 10 9 10 5 0 51 25 103 55 51 30 95 54 97 55 2 0 22 -10
45 -22z"/>
</g>
</svg>
